<svg height="512" width="512" xmlns="http://www.w3.org/2000/svg">
  <g>
    <path d="m507.579 4.745c3.675 3.652 5.203 8.945 4.037 13.992l-21.469 93.037c-.663 2.875-2.161 5.49-4.305 7.517l-271.979 257.108c-5.884 5.563-15.125 5.441-20.861-.275l-57.103-56.903c-2.933-2.922-4.406-6.764-4.406-10.61 0-3.71 1.371-7.424 4.122-10.319l257.847-271.24c2.001-2.105 4.571-3.583 7.397-4.253l92.704-22.002c5.041-1.197 10.341.297 14.016 3.948z" fill="#e8edf5"/>
    <path d="m165.199 310.316 36.587 36.484c2.782 2.774 4.345 6.542 4.345 10.47s-1.563 7.696-4.345 10.47l-118.908 118.576c-5.771 5.755-15.111 5.755-20.882 0l-36.586-36.484c-2.782-2.774-4.345-6.542-4.345-10.47 0-3.929 1.563-7.696 4.345-10.47l118.907-118.576c5.771-5.755 15.11-5.755 20.882 0z" fill="#bc5f19"/>
    <path d="m511.616 18.737-21.469 93.037c-.663 2.875-2.161 5.49-4.305 7.517l-271.979 257.108c-5.884 5.563-15.125 5.441-20.861-.275l-28.536-28.436 343.396-342.642c3.465 3.638 4.889 8.779 3.754 13.691z" fill="#cdd4e3"/>
    <path d="m201.785 346.8c2.782 2.774 4.345 6.542 4.345 10.47s-1.563 7.696-4.345 10.47l-118.907 118.576c-5.771 5.755-15.111 5.755-20.882 0l-18.056-18.006 139.652-139.652z" fill="#8f4813"/>
    <path d="m91.458 420.334c10.13 10.102 15.709 23.536 15.709 37.828s-5.579 27.726-15.709 37.828c-20.884 20.825-54.864 20.826-75.749 0-10.13-10.102-15.709-23.536-15.709-37.828 0-14.291 5.579-27.726 15.709-37.828 20.884-20.826 54.865-20.826 75.749 0z" fill="#ffcd00"/>
    <path d="m107.167 458.162c0 14.292-5.579 27.726-15.709 37.828-20.79 20.732-54.556 20.818-75.463.272l75.69-75.69c9.983 10.074 15.482 23.408 15.482 37.59z" fill="#ff9f22"/>
    <path d="m100.841 241.937c.052.052.1.107.152.159.028.028.059.051.087.079l169.036 168.563c.027.027.05.058.077.085.053.053.109.101.162.154 9.046 9.021 14.028 21.018 14.028 33.781s-4.982 24.76-14.028 33.78c-18.646 18.595-48.986 18.595-67.632 0-9.047-9.02-14.029-21.017-14.029-33.78v-.001c0-12.762 4.982-24.76 14.028-33.78 4.454-4.442 9.58-7.811 15.051-10.13l-106.713-106.415c-2.372 5.558-5.808 10.668-10.219 15.066-18.646 18.595-48.986 18.595-67.633 0-9.046-9.021-14.028-21.018-14.028-33.781s4.982-24.76 14.028-33.781c18.646-18.592 48.985-18.593 67.633.001z" fill="#ffcd00"/>
    <path d="m270.128 410.738c.027.027.05.058.077.085.053.053.109.101.162.154 9.046 9.021 14.028 21.018 14.028 33.781s-4.982 24.76-14.028 33.78c-18.646 18.595-48.986 18.595-67.632 0-9.047-9.02-14.029-21.017-14.029-33.78v-.001c0-12.762 4.982-24.76 14.028-33.78 4.454-4.442 9.58-7.811 15.051-10.13l-53.256-53.107 21.182-21.182z" fill="#ff9f22"/>
  </g>
</svg>