<svg width="512" height="512" xmlns="http://www.w3.org/2000/svg">
  <ellipse opacity="0" ry="250" rx="180" cy="256" cx="256" fill="#86cb95"/>
  <g transform="rotate(135 255.08587646484372,255.2479248046875)">
    <path fill="#e8edf5" d="m428.717371,81.839767c2.536365,2.520491 3.59094,6.173546 2.786205,9.65682l-14.817201,64.21109c-0.457581,1.984231 -1.491451,3.789018 -2.97117,5.187987l-187.710998,177.447521c-4.060944,3.8394 -10.43878,3.7552 -14.397579,-0.189796l-39.41062,-39.272587c-2.024261,-2.016669 -3.040877,-4.668291 -3.040877,-7.322675c0,-2.56052 0.946219,-5.123802 2.844869,-7.121836l177.957554,-187.200964c1.381025,-1.452802 3.154754,-2.472869 5.105167,-2.935281l63.981265,-15.18506c3.479133,-0.82613 7.13702,0.20498 9.673384,2.72478z"/>
    <path fill="#bc5f19" d="m192.417909,292.734863l25.251149,25.180062c1.920045,1.914524 2.998777,4.515074 2.998777,7.226051s-1.078731,5.311527 -2.998777,7.226051l-82.066407,81.837272c-3.982955,3.971913 -10.429117,3.971913 -14.412072,0l-25.250459,-25.180062c-1.920045,-1.914524 -2.998777,-4.515074 -2.998777,-7.226051c0,-2.711667 1.078731,-5.311527 2.998777,-7.226051l82.065717,-81.837272c3.982955,-3.971913 10.428427,-3.971913 14.412072,0z"/>
    <path fill="#cdd4e3" d="m431.503576,91.496587l-14.817201,64.21109c-0.457581,1.984231 -1.491451,3.789018 -2.97117,5.187987l-187.710998,177.447521c-4.060944,3.8394 -10.43878,3.7552 -14.397579,-0.189796l-19.694613,-19.625596l237.000672,-236.480286c2.39143,2.510828 3.374228,6.058978 2.590888,9.44908z"/>
    <path fill="#8f4813" d="m217.668368,317.914925c1.920045,1.914524 2.998777,4.515074 2.998777,7.226051s-1.078731,5.311527 -2.998777,7.226051l-82.065717,81.837272c-3.982955,3.971913 -10.429117,3.971913 -14.412072,0l-12.46166,-12.427151l96.383237,-96.383237l12.556213,12.521014z"/>
    <path fill="#ffcd00" d="m141.524286,368.665684c6.991394,6.97207 10.841837,16.243776 10.841837,26.107647s-3.850443,19.135577 -10.841837,26.107647c-14.413453,14.372733 -37.865336,14.373423 -52.279479,0c-6.991394,-6.97207 -10.841837,-16.243776 -10.841837,-26.107647c0,-9.86318 3.850443,-19.135577 10.841837,-26.107647c14.413453,-14.373423 37.866026,-14.373423 52.279479,0z"/>
    <path fill="#ff9f22" d="m152.366123,394.77333c0,9.86387 -3.850443,19.135577 -10.841837,26.107647c-14.348577,14.308547 -37.652764,14.367902 -52.082091,0.187725l52.238759,-52.238759c6.88994,6.952745 10.685169,16.155435 10.685169,25.943387z"/>
    <path fill="#ffcd00" d="m148.000125,245.541917c0.035889,0.035889 0.069017,0.073848 0.104905,0.109737c0.019325,0.019325 0.04072,0.035199 0.060045,0.054523l116.663111,116.336662c0.018635,0.018635 0.034508,0.04003 0.053143,0.058664c0.036579,0.036579 0.075228,0.069707 0.111807,0.106286c6.243253,6.225999 9.681666,14.505935 9.681666,23.31454s-3.438413,17.088541 -9.681666,23.31385c-12.868859,12.83366 -33.808533,12.83366 -46.677391,0c-6.243943,-6.225309 -9.682356,-14.505245 -9.682356,-23.31385l0,-0.00069c0,-8.807914 3.438413,-17.088541 9.681666,-23.31385c3.074005,-3.065723 6.611802,-5.390896 10.387707,-6.991394l-73.649818,-73.444148c-1.637077,3.83595 -4.008491,7.362704 -7.052819,10.39806c-12.868859,12.83366 -33.808533,12.83366 -46.678082,0c-6.243253,-6.225999 -9.681666,-14.505935 -9.681666,-23.31454s3.438413,-17.088541 9.681666,-23.31454c12.868859,-12.831589 33.807843,-12.83228 46.678082,0.00069z"/>
    <path fill="#ff9f22" d="m264.836468,362.042839c0.018635,0.018635 0.034508,0.04003 0.053143,0.058664c0.036579,0.036579 0.075228,0.069707 0.111807,0.106286c6.243253,6.225999 9.681666,14.505935 9.681666,23.31454s-3.438413,17.088541 -9.681666,23.31385c-12.868859,12.83366 -33.808533,12.83366 -46.677391,0c-6.243943,-6.225309 -9.682356,-14.505245 -9.682356,-23.31385l0,-0.00069c0,-8.807914 3.438413,-17.088541 9.681666,-23.31385c3.074005,-3.065723 6.611802,-5.390896 10.387707,-6.991394l-36.755547,-36.652712l14.619123,-14.619123l58.261849,58.098279z"/>
  </g>
</svg>